<svg width="40" height="40" viewBox="0 0 40 40" fill="none" xmlns="http://www.w3.org/2000/svg">
<rect width="40" height="40" rx="20" fill="#F2F4F7"/>
<path d="M11.0504 26H9.18679L13.3743 14.3636H15.4027L19.5902 26H17.7266L14.4368 16.4773H14.3459L11.0504 26ZM11.3629 21.4432H17.4084V22.9205H11.3629V21.4432ZM30.3885 18.1477H28.6158C28.5476 17.7689 28.4207 17.4356 28.2351 17.1477C28.0495 16.8598 27.8222 16.6155 27.5533 16.4148C27.2843 16.214 26.9832 16.0625 26.6499 15.9602C26.3203 15.858 25.9699 15.8068 25.5987 15.8068C24.9283 15.8068 24.3279 15.9754 23.7976 16.3125C23.2711 16.6496 22.8544 17.1439 22.5476 17.7955C22.2446 18.447 22.093 19.2424 22.093 20.1818C22.093 21.1288 22.2446 21.928 22.5476 22.5795C22.8544 23.2311 23.273 23.7235 23.8033 24.0568C24.3336 24.3902 24.9302 24.5568 25.593 24.5568C25.9605 24.5568 26.3089 24.5076 26.6385 24.4091C26.9718 24.3068 27.273 24.1572 27.5419 23.9602C27.8108 23.7633 28.0381 23.5227 28.2237 23.2386C28.4131 22.9508 28.5438 22.6212 28.6158 22.25L30.3885 22.2557C30.2938 22.8277 30.1101 23.3542 29.8374 23.8352C29.5684 24.3125 29.2218 24.7254 28.7976 25.0739C28.3771 25.4186 27.8961 25.6856 27.3544 25.875C26.8127 26.0644 26.2218 26.1591 25.5817 26.1591C24.5741 26.1591 23.6764 25.9205 22.8885 25.4432C22.1006 24.9621 21.4794 24.2746 21.0249 23.3807C20.5741 22.4867 20.3487 21.4205 20.3487 20.1818C20.3487 18.9394 20.576 17.8731 21.0305 16.983C21.4851 16.089 22.1063 15.4034 22.8942 14.9261C23.6821 14.4451 24.5779 14.2045 25.5817 14.2045C26.1991 14.2045 26.7749 14.2936 27.3089 14.4716C27.8468 14.6458 28.3298 14.9034 28.7578 15.2443C29.1858 15.5814 29.54 15.9943 29.8203 16.483C30.1006 16.9678 30.29 17.5227 30.3885 18.1477Z" fill="#475467"/>
</svg>
