<svg width="24" height="24" viewBox="0 0 24 24" fill="none" xmlns="http://www.w3.org/2000/svg">
<path fill-rule="evenodd" clip-rule="evenodd" d="M21.5622 6.47586C21.8425 6.75619 22 7.13619 22 7.53239C22 7.92859 21.8425 8.30859 21.5622 8.58892L13.5773 16.5628C13.2966 16.8427 12.9161 17 12.5193 17C12.1226 17 11.7421 16.8427 11.4613 16.5628L3.47651 8.58892C3.32942 8.45205 3.21144 8.28699 3.12961 8.10359C3.04778 7.92019 3.00378 7.72222 3.00023 7.52147C2.99669 7.32072 3.03366 7.12132 3.10896 6.93515C3.18426 6.74899 3.29634 6.57988 3.43851 6.4379C3.58067 6.29593 3.75002 6.18401 3.93644 6.10881C4.12286 6.03362 4.32254 5.99669 4.52357 6.00023C4.72459 6.00377 4.92284 6.04771 5.10649 6.12943C5.29014 6.21115 5.45543 6.32896 5.59249 6.47586L12.5193 13.3932L19.4462 6.47586C19.7269 6.19587 20.1074 6.03861 20.5042 6.03861C20.9009 6.03861 21.2814 6.19587 21.5622 6.47586Z" fill="white"/>
</svg>
