<svg width="24" height="24" viewBox="0 0 24 24" fill="none" xmlns="http://www.w3.org/2000/svg">
<path d="M13.4002 17.4201H10.8902C9.25016 17.4201 7.92016 16.0401 7.92016 14.3401C7.92016 13.9301 8.26016 13.5901 8.67016 13.5901C9.08016 13.5901 9.42016 13.9301 9.42016 14.3401C9.42016 15.2101 10.0802 15.9201 10.8902 15.9201H13.4002C14.0502 15.9201 14.5902 15.3401 14.5902 14.6401C14.5902 13.7701 14.2802 13.6001 13.7702 13.4201L9.74016 12.0001C8.96016 11.7301 7.91016 11.1501 7.91016 9.36008C7.91016 7.82008 9.12016 6.58008 10.6002 6.58008H13.1102C14.7502 6.58008 16.0802 7.96008 16.0802 9.66008C16.0802 10.0701 15.7402 10.4101 15.3302 10.4101C14.9202 10.4101 14.5802 10.0701 14.5802 9.66008C14.5802 8.79008 13.9202 8.08008 13.1102 8.08008H10.6002C9.95016 8.08008 9.41016 8.66008 9.41016 9.36008C9.41016 10.2301 9.72016 10.4001 10.2302 10.5801L14.2602 12.0001C15.0402 12.2701 16.0902 12.8501 16.0902 14.6401C16.0802 16.1701 14.8802 17.4201 13.4002 17.4201Z" fill="#667085"/>
<path d="M12 18.75C11.59 18.75 11.25 18.41 11.25 18V6C11.25 5.59 11.59 5.25 12 5.25C12.41 5.25 12.75 5.59 12.75 6V18C12.75 18.41 12.41 18.75 12 18.75Z" fill="#667085"/>
<path d="M12 22.75C6.07 22.75 1.25 17.93 1.25 12C1.25 6.07 6.07 1.25 12 1.25C17.93 1.25 22.75 6.07 22.75 12C22.75 17.93 17.93 22.75 12 22.75ZM12 2.75C6.9 2.75 2.75 6.9 2.75 12C2.75 17.1 6.9 21.25 12 21.25C17.1 21.25 21.25 17.1 21.25 12C21.25 6.9 17.1 2.75 12 2.75Z" fill="#667085"/>
</svg>
