<svg xmlns="http://www.w3.org/2000/svg" width="35" height="35" viewBox="0 0 35 35" fill="none">
  <path d="M7.92455 28.1577C6.9034 27.1219 6.9034 25.4426 7.92455 24.4069L9.74872 22.5566L15.2968 28.349L11.8263 29.2499L7.92455 28.1577Z" fill="url(#paint0_linear_3363_47878)"/>
  <path d="M0.478784 20.807C-0.159595 20.1595 -0.159595 19.1095 0.478784 18.462L3.05024 15.8538L8.35746 21.2368L0.478784 20.807Z" fill="url(#paint1_linear_3363_47878)"/>
  <path d="M33.9823 19.3653L20.0488 33.4978C18.9899 34.5683 17.2778 34.5683 16.2192 33.4978L2.28571 19.3653C1.23028 18.2912 1.23028 16.5547 2.28571 15.4809L16.2192 1.34838C17.2782 0.277877 18.9902 0.277877 20.0488 1.34838L33.9823 15.4809C35.0378 16.5547 35.0378 18.2912 33.9823 19.3653Z" fill="url(#paint2_linear_3363_47878)"/>
  <path opacity="0.28" d="M33.1121 15.5819C30.465 16.8791 26.4736 17.4055 20.7977 14.8356C13.6263 11.5929 6.80912 13.9675 2.40869 16.4779C2.50158 16.2966 2.6217 16.1257 2.7732 15.9724L16.7032 1.83983C17.0847 1.45614 17.5936 1.24367 18.1334 1.24367C18.6731 1.24367 19.1817 1.45647 19.5636 1.84341L33.1121 15.5819Z" fill="url(#paint3_linear_3363_47878)"/>
  <g opacity="0.44">
    <path d="M27.9271 18.8246L25.9021 26.4994L24.74 24.5225L21.1442 28.1732C20.3053 29.0205 19.3806 29.7528 18.387 30.3525C17.0942 31.1371 15.647 31.4961 14.2133 31.465L11.7896 29.0065C14.4468 28.8564 16.9187 27.7408 18.8165 25.8162L22.4812 22.1027L20.2121 20.7255L27.9271 18.8246Z" fill="url(#paint4_linear_3363_47878)"/>
    <path d="M23.8615 9.68913L21.4825 18.7064L20.1141 16.3841L15.8889 20.6661C14.9642 21.604 13.9466 22.4201 12.8636 23.1001C11.1653 24.1635 9.24376 24.6206 7.35265 24.5052L4.55762 21.6703C7.78923 21.5693 10.8661 20.2268 13.1589 17.901L17.4562 13.5387L14.7954 11.9243L23.8615 9.68913Z" fill="url(#paint5_linear_3363_47878)"/>
  </g>
  <path d="M27.2423 17.9549L25.2173 25.6297L24.052 23.6527L20.4562 27.2999C19.6179 28.1501 18.6929 28.8798 17.7012 29.4812C14.556 31.3879 10.516 30.7856 7.92529 28.1576H10.4794C13.3706 28.1576 16.0865 27.0172 18.132 24.9425L21.7931 21.2323L19.5276 19.8551L27.2423 17.9549Z" fill="url(#paint6_linear_3363_47878)"/>
  <path d="M23.1751 8.81549L20.7961 17.8363L19.4246 15.5104L15.1993 19.796C14.2746 20.7339 13.2599 21.5478 12.175 22.2287C8.43695 24.5757 3.58713 23.9601 0.478516 20.807H3.47982C6.85205 20.807 10.0862 19.4484 12.4706 17.0296L16.7701 12.6683L14.1093 11.054L23.1751 8.81549Z" fill="url(#paint7_linear_3363_47878)"/>
  <g opacity="0.5">
    <path opacity="0.78" d="M26.7596 18.4309L25.388 23.6333C24.3668 22.8662 23.2394 22.1479 22.0154 21.4994L22.3489 21.1648L20.4238 19.9932L26.7596 18.4309Z" fill="url(#paint8_linear_3363_47878)"/>
    <path opacity="0.78" d="M22.6932 9.29504L20.6753 16.9487L19.4927 14.9471L15.5359 18.964C14.5938 18.706 13.6246 18.4864 12.631 18.3048C12.3389 18.2525 12.0464 18.2038 11.7578 18.1583C12.0877 17.8828 12.4077 17.5865 12.7136 17.2762L17.327 12.6001L15.0064 11.1914L22.6932 9.29504Z" fill="url(#paint9_linear_3363_47878)"/>
  </g>
  <defs>
    <linearGradient id="paint0_linear_3363_47878" x1="7.15866" y1="25.9031" x2="15.2969" y2="25.9031" gradientUnits="userSpaceOnUse">
      <stop stop-color="#B0D1FF"/>
      <stop offset="1" stop-color="#4F93FF"/>
    </linearGradient>
    <linearGradient id="paint1_linear_3363_47878" x1="-0.000112109" y1="18.5454" x2="8.35733" y2="18.5454" gradientUnits="userSpaceOnUse">
      <stop stop-color="#B0D1FF"/>
      <stop offset="1" stop-color="#4F93FF"/>
    </linearGradient>
    <linearGradient id="paint2_linear_3363_47878" x1="18.0062" y1="31.0963" x2="18.3599" y2="-5.68908" gradientUnits="userSpaceOnUse">
      <stop stop-color="#0058D4"/>
      <stop offset="1" stop-color="#00245B"/>
    </linearGradient>
    <linearGradient id="paint3_linear_3363_47878" x1="17.8538" y1="8.0426" x2="17.7359" y2="17.8641" gradientUnits="userSpaceOnUse">
      <stop/>
      <stop offset="1" stop-color="#B0D1FF"/>
    </linearGradient>
    <linearGradient id="paint4_linear_3363_47878" x1="11.7902" y1="25.1458" x2="27.9273" y2="25.1458" gradientUnits="userSpaceOnUse">
      <stop stop-color="#001334"/>
      <stop offset="1" stop-color="#00245B"/>
    </linearGradient>
    <linearGradient id="paint5_linear_3363_47878" x1="4.558" y1="17.1057" x2="23.8613" y2="17.1057" gradientUnits="userSpaceOnUse">
      <stop stop-color="#001334"/>
      <stop offset="1" stop-color="#00245B"/>
    </linearGradient>
    <linearGradient id="paint6_linear_3363_47878" x1="7.92526" y1="24.2753" x2="27.2424" y2="24.2753" gradientUnits="userSpaceOnUse">
      <stop stop-color="#0065FF"/>
      <stop offset="1" stop-color="#00C4F7"/>
    </linearGradient>
    <linearGradient id="paint7_linear_3363_47878" x1="0.478772" y1="16.2332" x2="23.1752" y2="16.2332" gradientUnits="userSpaceOnUse">
      <stop stop-color="#0065FF"/>
      <stop offset="1" stop-color="#00C4F7"/>
    </linearGradient>
    <linearGradient id="paint8_linear_3363_47878" x1="24.7575" y1="18.6926" x2="20.9552" y2="24.9214" gradientUnits="userSpaceOnUse">
      <stop/>
      <stop offset="1" stop-color="#B0D1FF"/>
    </linearGradient>
    <linearGradient id="paint9_linear_3363_47878" x1="17.4127" y1="14.6288" x2="12.9226" y2="20.3205" gradientUnits="userSpaceOnUse">
      <stop/>
      <stop offset="1" stop-color="#B0D1FF"/>
    </linearGradient>
  </defs>
</svg>