<svg width="24" height="24" viewBox="0 0 24 24" fill="none" xmlns="http://www.w3.org/2000/svg">
<path d="M13.05 16.2502H11.17C9.84001 16.2502 8.75 15.1302 8.75 13.7502C8.75 13.3402 9.09 13.0002 9.5 13.0002C9.91 13.0002 10.25 13.3402 10.25 13.7502C10.25 14.3002 10.66 14.7502 11.17 14.7502H13.05C13.44 14.7502 13.75 14.4002 13.75 13.9702C13.75 13.4302 13.6 13.3502 13.26 13.2302L10.25 12.1802C9.61 11.9502 8.75 11.4902 8.75 10.0202C8.75 8.77023 9.74001 7.74023 10.95 7.74023H12.83C14.16 7.74023 15.25 8.86023 15.25 10.2402C15.25 10.6502 14.91 10.9902 14.5 10.9902C14.09 10.9902 13.75 10.6502 13.75 10.2402C13.75 9.69023 13.34 9.24023 12.83 9.24023H10.95C10.56 9.24023 10.25 9.59023 10.25 10.0202C10.25 10.5602 10.4 10.6402 10.74 10.7602L13.75 11.8102C14.39 12.0402 15.25 12.5002 15.25 13.9702C15.25 15.2302 14.26 16.2502 13.05 16.2502Z" fill="#667085"/>
<path d="M12 17.25C11.59 17.25 11.25 16.91 11.25 16.5V7.5C11.25 7.09 11.59 6.75 12 6.75C12.41 6.75 12.75 7.09 12.75 7.5V16.5C12.75 16.91 12.41 17.25 12 17.25Z" fill="#667085"/>
<path d="M12 22.75C6.07 22.75 1.25 17.93 1.25 12C1.25 6.07 6.07 1.25 12 1.25C12.41 1.25 12.75 1.59 12.75 2C12.75 2.41 12.41 2.75 12 2.75C6.9 2.75 2.75 6.9 2.75 12C2.75 17.1 6.9 21.25 12 21.25C17.1 21.25 21.25 17.1 21.25 12C21.25 11.59 21.59 11.25 22 11.25C22.41 11.25 22.75 11.59 22.75 12C22.75 17.93 17.93 22.75 12 22.75Z" fill="#667085"/>
<path d="M22 6.75C21.59 6.75 21.25 6.41 21.25 6V2.75H18C17.59 2.75 17.25 2.41 17.25 2C17.25 1.59 17.59 1.25 18 1.25H22C22.41 1.25 22.75 1.59 22.75 2V6C22.75 6.41 22.41 6.75 22 6.75Z" fill="#667085"/>
<path d="M16.9999 7.74994C16.8099 7.74994 16.6199 7.67994 16.4699 7.52994C16.1799 7.23994 16.1799 6.75994 16.4699 6.46994L21.4699 1.46994C21.7599 1.17994 22.2399 1.17994 22.5299 1.46994C22.8199 1.75994 22.8199 2.23994 22.5299 2.52994L17.5299 7.52994C17.3799 7.67994 17.1899 7.74994 16.9999 7.74994Z" fill="#667085"/>
</svg>
