<svg xmlns="http://www.w3.org/2000/svg" width="20" height="20" viewBox="0 0 20 20" fill="none">
  <path d="M12.4998 14.1667V17.5H7.49984V14.1667M4.33317 14.1667H15.6665C16.5999 14.1667 17.0666 14.1667 17.4232 13.985C17.7368 13.8252 17.9917 13.5703 18.1515 13.2567C18.3332 12.9001 18.3332 12.4334 18.3332 11.5V5.16667C18.3332 4.23325 18.3332 3.76654 18.1515 3.41002C17.9917 3.09641 17.7368 2.84144 17.4232 2.68166C17.0666 2.5 16.5999 2.5 15.6665 2.5H4.33317C3.39975 2.5 2.93304 2.5 2.57652 2.68166C2.26292 2.84144 2.00795 3.09641 1.84816 3.41002C1.6665 3.76654 1.6665 4.23325 1.6665 5.16667V11.5C1.6665 12.4334 1.6665 12.9001 1.84816 13.2567C2.00795 13.5703 2.26292 13.8252 2.57652 13.985C2.93304 14.1667 3.39975 14.1667 4.33317 14.1667Z" stroke="#175CD3" stroke-width="1.66667" stroke-linecap="round" stroke-linejoin="round"/>
</svg>