<svg xmlns="http://www.w3.org/2000/svg" width="20" height="20" viewBox="0 0 20 20" fill="none">
  <path d="M13.3335 7.49999V4.99999C13.3335 3.15904 11.8411 1.66666 10.0001 1.66666C8.1592 1.66666 6.66681 3.15904 6.66681 4.99999V7.49999M2.99348 8.62663L2.49348 13.96C2.35132 15.4764 2.28023 16.2346 2.53185 16.8202C2.75289 17.3347 3.14024 17.76 3.63183 18.0281C4.19142 18.3333 4.95295 18.3333 6.47602 18.3333H13.5243C15.0473 18.3333 15.8089 18.3333 16.3685 18.0281C16.86 17.76 17.2474 17.3347 17.4684 16.8202C17.7201 16.2346 17.649 15.4764 17.5068 13.96L17.0068 8.62663C16.8868 7.34611 16.8267 6.70585 16.5388 6.22179C16.2851 5.79548 15.9104 5.45425 15.4623 5.24153C14.9535 4.99999 14.3104 4.99999 13.0243 4.99999L6.97602 4.99999C5.68989 4.99999 5.04682 4.99999 4.53799 5.24153C4.08987 5.45425 3.71515 5.79548 3.46153 6.22179C3.17355 6.70585 3.11353 7.34611 2.99348 8.62663Z" stroke="#C11574" stroke-width="1.66667" stroke-linecap="round" stroke-linejoin="round"/>
</svg>