<svg width="40" height="40" viewBox="0 0 40 40" fill="none" xmlns="http://www.w3.org/2000/svg">
<rect width="40" height="40" rx="20" fill="#F2F4F7"/>
<path d="M10.2592 15.875V14.3636H19.2649V15.875H15.6342V26H13.8842V15.875H10.2592ZM21.255 26V14.3636H25.5163C26.3421 14.3636 27.0258 14.5 27.5675 14.7727C28.1091 15.0417 28.5144 15.4072 28.7834 15.8693C29.0523 16.3277 29.1868 16.8447 29.1868 17.4205C29.1868 17.9053 29.0978 18.3144 28.9197 18.6477C28.7417 18.9773 28.5031 19.2424 28.2038 19.4432C27.9084 19.6402 27.5826 19.7841 27.2266 19.875V19.9886C27.6129 20.0076 27.9898 20.1326 28.3572 20.3636C28.7285 20.5909 29.0353 20.9148 29.2777 21.3352C29.5201 21.7557 29.6413 22.267 29.6413 22.8693C29.6413 23.464 29.5012 23.9981 29.2209 24.4716C28.9444 24.9413 28.5163 25.3144 27.9368 25.5909C27.3572 25.8636 26.6167 26 25.7152 26H21.255ZM23.0107 24.4943H25.5447C26.3857 24.4943 26.9879 24.3314 27.3516 24.0057C27.7152 23.6799 27.897 23.2727 27.897 22.7841C27.897 22.4167 27.8042 22.0795 27.6186 21.7727C27.433 21.4659 27.1679 21.2216 26.8232 21.0398C26.4822 20.858 26.0769 20.767 25.6072 20.767H23.0107V24.4943ZM23.0107 19.3977H25.3629C25.7569 19.3977 26.111 19.322 26.4254 19.1705C26.7436 19.0189 26.9955 18.8068 27.1811 18.5341C27.3705 18.2576 27.4652 17.9318 27.4652 17.5568C27.4652 17.0758 27.2966 16.6723 26.9595 16.3466C26.6224 16.0208 26.1054 15.858 25.4084 15.858H23.0107V19.3977Z" fill="#475467"/>
</svg>
